<?xml version="1.0" standalone="no"?>
<!DOCTYPE svg PUBLIC "-//W3C//DTD SVG 20010904//EN"
 "http://www.w3.org/TR/2001/REC-SVG-20010904/DTD/svg10.dtd">
<svg version="1.0" xmlns="http://www.w3.org/2000/svg"
 width="512.000000pt" height="512.000000pt" viewBox="0 0 512.000000 512.000000"
 preserveAspectRatio="xMidYMid meet">
<metadata>
Created by potrace 1.14, written by Peter Selinger 2001-2017
</metadata>
<g transform="translate(0.000000,512.000000) scale(0.100000,-0.100000)"
fill="#000000" stroke="none">
<path d="M1713 5101 c-87 -24 -131 -46 -209 -105 -121 -91 -210 -246 -229
-399 l-7 -55 -97 -65 c-427 -289 -771 -744 -934 -1237 -90 -269 -127 -499
-127 -785 0 -511 143 -974 431 -1396 79 -115 235 -298 265 -309 14 -6 35 -5
54 2 30 10 34 8 80 -37 45 -44 47 -49 43 -89 -5 -40 -3 -44 43 -85 67 -59 279
-199 394 -259 473 -250 1058 -340 1577 -242 690 131 1272 521 1634 1095 197
313 333 704 370 1063 17 169 7 506 -21 661 -91 515 -321 962 -680 1322 -140
140 -217 205 -370 308 -115 79 -146 86 -185 46 -25 -24 -31 -49 -19 -80 4 -9
43 -40 88 -69 129 -84 257 -188 371 -301 l106 -105 -37 -68 c-47 -86 -91 -129
-141 -137 -151 -23 -218 -76 -307 -245 -33 -61 -71 -120 -84 -131 -38 -29 -90
-39 -172 -33 -145 12 -286 -42 -396 -152 -81 -81 -117 -158 -154 -330 -16 -75
-40 -155 -53 -178 -13 -23 -71 -105 -129 -182 -145 -193 -159 -225 -138 -313
16 -66 53 -107 178 -198 120 -87 178 -109 246 -93 22 5 42 7 44 5 2 -2 8 -36
13 -77 23 -185 118 -397 264 -588 127 -166 195 -218 295 -227 120 -11 202 42
334 217 89 118 146 213 191 315 18 42 36 76 40 76 3 1 78 -54 165 -121 l158
-121 -40 -72 c-182 -323 -448 -605 -758 -806 -282 -183 -675 -323 -1002 -356
l-68 -7 -22 48 c-15 33 -22 69 -23 112 l0 62 63 61 c92 87 115 143 115 275 -1
133 -20 178 -132 298 -46 49 -87 100 -92 113 -19 51 -10 96 36 172 72 119 79
217 25 319 -50 94 -93 121 -320 197 -106 35 -198 69 -206 76 -8 6 -66 102
-130 213 -64 110 -131 216 -148 235 -40 44 -86 62 -152 62 -74 0 -128 -31
-175 -101 -63 -92 -79 -110 -103 -110 -27 0 -56 29 -56 56 1 21 124 491 131
498 2 2 70 38 151 80 161 84 197 116 218 192 23 82 -12 183 -89 260 -61 60
-115 83 -260 109 -70 13 -144 31 -162 40 -79 40 -405 243 -443 276 -48 42 -85
113 -111 211 l-18 68 48 51 c120 129 365 334 389 326 5 -2 18 -34 28 -73 41
-148 167 -371 302 -532 91 -108 154 -144 255 -144 120 0 196 59 346 267 202
281 288 598 221 820 -9 27 -13 52 -10 55 10 10 328 3 419 -9 206 -27 456 -92
603 -157 63 -28 99 -30 130 -8 28 19 31 83 4 107 -39 35 -276 120 -452 161
-204 48 -309 60 -565 61 l-240 1 -48 46 c-105 103 -234 158 -387 164 -73 3
-112 0 -167 -15z m342 -185 c88 -44 154 -112 199 -206 30 -62 31 -71 31 -190
0 -103 -4 -138 -23 -200 -32 -99 -89 -218 -151 -310 -88 -131 -71 -127 -157
-36 -58 61 -86 101 -124 179 -28 56 -50 105 -50 109 0 4 31 7 68 6 160 -1 272
107 272 262 0 148 -111 262 -256 264 l-62 1 20 40 c11 22 32 59 47 83 25 42
27 43 69 39 24 -3 77 -21 117 -41z m-123 -305 c29 -26 33 -35 33 -81 0 -46 -4
-55 -33 -81 -51 -45 -124 -37 -169 21 -19 23 -16 101 5 126 43 53 114 60 164
15z m1972 -2252 c104 -39 204 -139 248 -249 19 -46 22 -74 22 -170 -1 -97 -5
-128 -29 -200 -36 -110 -93 -223 -168 -333 l-60 -88 -54 53 c-66 65 -136 167
-169 248 -13 33 -24 63 -24 68 0 5 24 7 54 4 151 -12 286 112 286 263 0 145
-124 265 -272 265 l-48 0 21 43 c12 23 33 61 48 85 24 40 28 43 60 37 19 -4
57 -15 85 -26z m-88 -320 c39 -37 49 -82 27 -126 -37 -75 -121 -92 -177 -37
-99 99 48 259 150 163z"/>
</g>
</svg>
